<?xml version="1.0" standalone="no"?>
<!DOCTYPE svg PUBLIC "-//W3C//DTD SVG 1.1//EN" "http://www.w3.org/Graphics/SVG/1.1/DTD/svg11.dtd" >
<svg>
<metadata>
Created by FontForge 20120731 at Sat Mar  7 10:48:26 2020
 By ffonts
Copyright 2018 Adobe Systems Incorporated. All rights reserved.
</metadata>
<defs>
<font id="AzonixRegular" horiz-adv-x="800" >
  <font-face 
    font-family="Azonix"
    font-weight="400"
    font-stretch="normal"
    units-per-em="1000"
    panose-1="0 0 0 0 0 0 0 0 0 0"
    ascent="800"
    descent="-200"
    x-height="699"
    cap-height="700"
    bbox="9 -183 928 789"
    underline-thickness="0"
    underline-position="0"
    unicode-range="U+000A-20AC"
  />
<missing-glyph horiz-adv-x="527" 
d="M50 700h427v-700h-427v700zM78 680l185 -309l186 309h-371zM251 350l-180 300v-601zM264 329l-185 -308h370zM276 350l181 -303v605z" />
    <glyph glyph-name=".notdef" horiz-adv-x="527" 
d="M50 700h427v-700h-427v700zM78 680l185 -309l186 309h-371zM251 350l-180 300v-601zM264 329l-185 -308h370zM276 350l181 -303v605z" />
    <glyph glyph-name=".null" horiz-adv-x="100" 
 />
    <glyph glyph-name=".null" horiz-adv-x="100" 
 />
    <glyph glyph-name="controlLF" unicode="&#xa;" horiz-adv-x="100" 
 />
    <glyph glyph-name="controlCR" unicode="&#xd;" horiz-adv-x="100" 
 />
    <glyph glyph-name="space" unicode=" " horiz-adv-x="487" 
 />
    <glyph glyph-name="exclam" unicode="!" horiz-adv-x="225" 
d="M175 -7h-125v125h125v-125zM50 693h125v-168l-33 -356h-59l-33 356v168z" />
    <glyph glyph-name="quotedbl" unicode="&#x22;" horiz-adv-x="384" 
d="M334 504h-125v246h125v-246zM174 504h-125v246h125v-246z" />
    <glyph glyph-name="numbersign" unicode="#" horiz-adv-x="803" 
d="M591 410l-25 -132l-1 -4h138l-24 -121l-1 -4h-138v0l-31 -157h-127v0v0l31 157h-98v0l-31 -157h-127v0v0l7 34l12 64l12 59h-137l6 30l16 84l3 12v0h137v0l1 6l26 129v0v0h-137l25 124v1v0v0h137v0v0v0v0l31 157v0h127l-31 -157h98v0l31 157h126l-31 -157h138l-25 -125
h-138v0zM465 410l1 1v0h-98v0l-26 -132l-1 -4h97l1 4z" />
    <glyph glyph-name="dollar" unicode="$" horiz-adv-x="762" 
d="M712 461h-125v4c0 35 -29 64 -64 64h-79v-132h47h6h26c51 0 97 -20 131 -53c9 -9 17 -19 24 -30c21 -30 33 -67 33 -107v-4c0 -104 -84 -189 -188 -189h-80v-126h-125v126h-79c-104 0 -189 85 -189 189v4h125v-4c0 -35 29 -64 64 -64h79v132h-47h-6h-26
c-51 0 -97 20 -131 53c-9 9 -17 19 -24 30c-21 30 -33 67 -33 107v4c0 104 84 189 188 189h80v135h125v-135h79c104 0 189 -85 189 -189v-4zM318 397v132h-80c-35 0 -64 -29 -64 -64v-4c0 -35 29 -64 64 -64h80zM523 272h-80v-132h80c35 0 64 29 64 64v4c0 35 -29 64 -64 64
z" />
    <glyph glyph-name="percent" unicode="%" horiz-adv-x="928" 
d="M572 685h141l-368 -700h-141zM699 340c98 0 177 -79 177 -177s-79 -177 -177 -177s-177 79 -177 177s79 177 177 177zM699 110c29 0 53 24 53 53s-24 53 -53 53s-53 -24 -53 -53s24 -53 53 -53zM404 508c0 -98 -79 -177 -177 -177s-177 79 -177 177s79 177 177 177
s177 -79 177 -177zM174 508c0 -29 24 -53 53 -53s53 24 53 53s-24 53 -53 53s-53 -24 -53 -53z" />
    <glyph glyph-name="ampersand" unicode="&#x26;" horiz-adv-x="791" 
d="M256 413l486 3v-126h-125v-287h-361c-113 0 -205 92 -205 205c0 56 22 107 58 144c-36 37 -58 88 -58 144c0 113 92 205 205 205h361v-125h-361c-44 0 -81 -37 -81 -81c0 -45 37 -82 81 -82zM493 128v163h-236c-44 0 -81 -37 -81 -82c0 -44 37 -81 81 -81h236z" />
    <glyph glyph-name="quotesingle" unicode="'" horiz-adv-x="225" 
d="M175 502h-125v248h125v-248z" />
    <glyph glyph-name="parenleft" unicode="(" horiz-adv-x="400" 
d="M350 742h-1c-89 -99 -345 -450 1 -903h-153c-261 401 -118 734 -3 903h156z" />
    <glyph glyph-name="parenright" unicode=")" horiz-adv-x="400" 
d="M206 742h-1c115 -169 258 -502 -3 -903h-153c346 453 90 804 1 903h156z" />
    <glyph glyph-name="asterisk" unicode="*" horiz-adv-x="387" 
d="M233 589h-1l69 -81l-54 -39l-54 93l-54 -93l-54 39l69 81l-105 24l21 66l99 -42v0l-9 105h69c-4 -35 -8 -70 -11 -105l99 42l21 -66z" />
    <glyph glyph-name="plus" unicode="+" horiz-adv-x="574" 
d="M350 393h175v-125h-175v-175h-125v175h-175v125h175v175h125v-175z" />
    <glyph glyph-name="comma" unicode="," horiz-adv-x="225" 
d="M50 118h124v-250h-62l-62 125v0v125z" />
    <glyph glyph-name="hyphen" unicode="-" horiz-adv-x="574" 
d="M524 268h-474v125h474v-125z" />
    <glyph glyph-name="period" unicode="." horiz-adv-x="225" 
d="M175 -7h-125v125h125v-125z" />
    <glyph glyph-name="slash" unicode="/" horiz-adv-x="428" 
d="M248 685h130l-72 -255l-35 -125l-91 -320h-130l91 320l35 125z" />
    <glyph glyph-name="zero" unicode="0" horiz-adv-x="769" 
d="M492 575h-216c-56 0 -102 -46 -102 -102v-247c0 -56 46 -102 102 -102h216c56 0 102 46 102 102v247c0 56 -46 102 -102 102zM276 700h216c125 0 226 -101 226 -226v-247c0 -125 -101 -226 -226 -226h-216c-125 0 -226 101 -226 226v247c0 125 101 226 226 226z" />
    <glyph glyph-name="one" unicode="1" horiz-adv-x="338" 
d="M288 465l2 2v0v-476h-125v489c-6 44 -41 79 -85 85h-12h-16v124h15v0v0h12v-1c30 -2 59 -10 85 -23v0c44 -22 80 -58 101 -102c7 -15 13 -31 17 -47s6 -33 6 -51z" />
    <glyph glyph-name="two" unicode="2" 
d="M175 125l572 -2v-125h-493v0h-205v206c0 29 6 56 17 81c30 72 100 123 182 126h300h3c42 4 74 39 74 81c0 45 -36 82 -81 82h-493v125h493c114 0 206 -92 206 -206c0 -29 -6 -56 -17 -81c-10 -23 -24 -44 -42 -62c-36 -37 -86 -61 -141 -63h-3h-3h-296
c-41 -4 -73 -39 -73 -81v-81z" />
    <glyph glyph-name="three" unicode="3" 
d="M750 491l-1 -3c0 -56 -22 -107 -58 -144c36 -37 58 -88 58 -144c0 -114 -92 -206 -206 -206h-493v125h493c45 0 82 37 82 82c0 44 -34 80 -77 82h-3h-369v125h369h3c43 2 78 38 78 82c0 45 -37 82 -82 82h-493v125h493c114 0 206 -92 206 -206z" />
    <glyph glyph-name="four" unicode="4" 
d="M625 700h124v-700h-125v288h-369c-34 0 -66 8 -94 23c-67 34 -112 103 -112 183v206h125v-206c0 -45 37 -82 82 -82h369v288z" />
    <glyph glyph-name="five" unicode="5" 
d="M733 285l-1 -1c11 -25 17 -52 17 -81c0 -114 -92 -206 -206 -206h-493v125h493c45 0 81 37 81 82c0 42 -31 77 -72 81h-502v412h641v-125h-516v-162h369h7c82 -2 152 -53 182 -125z" />
    <glyph glyph-name="six" unicode="6" 
d="M691 350l-1 3c36 -37 58 -88 58 -144c0 -114 -92 -206 -206 -206h-287c-86 0 -159 52 -190 126c-10 25 -16 52 -16 81v287c0 52 20 99 52 135c17 19 37 35 60 47c28 15 60 23 94 23h435v-125h-435c-45 0 -82 -37 -82 -82v-98c24 10 51 16 78 16h1h3h287h3h1
c57 -1 108 -25 145 -63v0v0zM542 128h-1c45 0 82 37 82 82c0 44 -34 80 -77 82h-1h-3h-287h-3h-1c-43 -2 -78 -38 -78 -82c0 -45 37 -82 82 -82h287z" />
    <glyph glyph-name="seven" unicode="7" horiz-adv-x="677" 
d="M604 575v1c15 -30 23 -63 23 -98v-477h-125v489c-6 44 -41 79 -85 85h-367v125h355c35 0 68 -8 98 -23c44 -22 80 -58 101 -102z" />
    <glyph glyph-name="eight" unicode="8" 
d="M691 350l2 -1v0c36 -37 58 -88 58 -144c0 -114 -92 -206 -206 -206h-287c-86 0 -159 52 -190 126c-10 25 -16 52 -16 81c0 56 22 107 58 144v0c-18 18 -33 39 -43 63c-10 25 -16 52 -16 81c0 56 22 107 58 144c19 20 41 36 66 47c24 10 51 16 78 16h3h287h3
c57 -1 108 -25 145 -63c36 -37 58 -88 58 -144s-22 -107 -58 -144zM545 124l-4 -1c45 0 82 37 82 82c0 44 -34 80 -77 82h-3h-287h-3c-43 -2 -77 -38 -77 -81c0 -45 37 -82 82 -82h287zM543 410h-3c44 1 80 37 80 81s-34 80 -77 82h-295c-43 -2 -78 -38 -78 -82
s36 -80 80 -81h3h287h3z" />
    <glyph glyph-name="nine" unicode="9" 
d="M733 574h1c10 -25 16 -52 16 -81v-287c0 -60 -25 -114 -66 -152c-14 -13 -29 -24 -46 -33c-28 -15 -60 -23 -94 -23h-435v125h435c45 0 82 37 82 82v98c-24 -10 -51 -16 -78 -16h-1h-3h-287h-3h-1c-57 1 -108 25 -145 63v0c-36 37 -58 88 -58 144c0 114 92 206 206 206
h287c86 0 159 -52 190 -126zM257 575c-45 0 -82 -37 -82 -82c0 -44 35 -80 78 -82h1h3h287h3h1c43 2 78 38 78 82c0 45 -37 82 -82 82h-287z" />
    <glyph glyph-name="colon" unicode=":" horiz-adv-x="225" 
d="M175 -7h-125v125h125v-125zM175 375h-125v125h125v-125z" />
    <glyph glyph-name="semicolon" unicode=";" horiz-adv-x="225" 
d="M50 -7l-1 125h125v-250h-62l-62 125v0zM174 375h-125v125h125v-125z" />
    <glyph glyph-name="less" unicode="&#x3c;" horiz-adv-x="574" 
d="M414 397l-64 -22l-113 -40l113 -40l64 -23l111 -39v-133l-175 62l-125 44l-175 62v133l175 62l125 44l175 62v-133z" />
    <glyph glyph-name="equal" unicode="=" horiz-adv-x="574" 
d="M524 367h-474v125h474v-125zM524 156h-474v125h474v-125z" />
    <glyph glyph-name="greater" unicode="&#x3e;" horiz-adv-x="574" 
d="M350 462l175 -63v-133l-175 -62l-125 -44l-175 -62v133l111 39l64 23l113 40l-113 40l-64 23l-111 39v133l175 -62z" />
    <glyph glyph-name="question" unicode="?" horiz-adv-x="762" 
d="M443 -7h-125v125h125v-125zM688 568v2c15 -30 23 -64 23 -99c0 -123 -100 -223 -223 -223h-45v-78h-125v202h170c54 0 98 44 98 98s-44 98 -98 98h-215c-54 0 -98 -44 -98 -98h-125c0 35 8 68 23 98c36 74 112 125 200 125h215c88 0 164 -51 200 -125z" />
    <glyph glyph-name="at" unicode="@" 
d="M400 693l349 1v-450h-349v0v0c-55 0 -100 45 -100 100s45 100 100 100v0v0h100v-76h125v200h-225c-124 0 -225 -101 -225 -225s101 -225 225 -225h350v-125h-350c-193 0 -350 157 -350 350s157 350 350 350z" />
    <glyph glyph-name="A" unicode="A" horiz-adv-x="735" 
d="M661 125l64 -125h-140l-64 125l-153 300l-153 -300l-64 -125h-140l64 125l293 575z" />
    <glyph glyph-name="A" unicode="&#xc5;" horiz-adv-x="735" 
d="M661 125l64 -125h-140l-64 125l-153 300l-153 -300l-64 -125h-140l64 125l293 575z" />
    <glyph glyph-name="A" unicode="&#xc4;" horiz-adv-x="735" 
d="M661 125l64 -125h-140l-64 125l-153 300l-153 -300l-64 -125h-140l64 125l293 575z" />
    <glyph glyph-name="A" unicode="&#xc3;" horiz-adv-x="735" 
d="M661 125l64 -125h-140l-64 125l-153 300l-153 -300l-64 -125h-140l64 125l293 575z" />
    <glyph glyph-name="A" unicode="&#xc2;" horiz-adv-x="735" 
d="M661 125l64 -125h-140l-64 125l-153 300l-153 -300l-64 -125h-140l64 125l293 575z" />
    <glyph glyph-name="A" unicode="&#xc1;" horiz-adv-x="735" 
d="M661 125l64 -125h-140l-64 125l-153 300l-153 -300l-64 -125h-140l64 125l293 575z" />
    <glyph glyph-name="A" unicode="&#xc0;" horiz-adv-x="735" 
d="M661 125l64 -125h-140l-64 125l-153 300l-153 -300l-64 -125h-140l64 125l293 575z" />
    <glyph glyph-name="B" unicode="B" horiz-adv-x="775" 
d="M650 409c60 -40 100 -108 100 -186c0 -123 -100 -223 -223 -223h-477v0v0v700h441c104 0 189 -85 189 -189c0 -38 -11 -73 -30 -102zM175 575v-128h317c35 0 64 29 64 64s-29 64 -64 64h-317zM527 125v1c54 0 98 44 98 98s-44 98 -98 98h-352v-197h352z" />
    <glyph glyph-name="C" unicode="C" horiz-adv-x="790" 
d="M390 575c-124 0 -225 -101 -225 -225s101 -225 225 -225h350v-125h-350c-193 0 -350 157 -350 350s157 350 350 350h350v-125h-350z" />
    <glyph glyph-name="C" unicode="&#xc7;" horiz-adv-x="790" 
d="M390 575c-124 0 -225 -101 -225 -225s101 -225 225 -225h350v-125h-350c-193 0 -350 157 -350 350s157 350 350 350h350v-125h-350z" />
    <glyph glyph-name="D" unicode="D" 
d="M50 700l349 -1c193 0 350 -156 350 -349c0 -86 -31 -165 -83 -226c-6 -7 -13 -14 -20 -21c-63 -64 -150 -103 -246 -103h-350v700zM174 574v-450h225c124 0 225 101 225 225s-101 225 -225 225h-225z" />
    <glyph glyph-name="E" unicode="E" 
d="M239 575c-35 0 -64 -29 -64 -64v-65h450v-125h-450v-132c0 -35 29 -64 64 -64h511v-125h-511c-104 0 -188 85 -188 189v322c0 104 84 189 188 189h511v-125h-511z" />
    <glyph glyph-name="E" unicode="&#xcb;" 
d="M239 575c-35 0 -64 -29 -64 -64v-65h450v-125h-450v-132c0 -35 29 -64 64 -64h511v-125h-511c-104 0 -188 85 -188 189v322c0 104 84 189 188 189h511v-125h-511z" />
    <glyph glyph-name="E" unicode="&#xca;" 
d="M239 575c-35 0 -64 -29 -64 -64v-65h450v-125h-450v-132c0 -35 29 -64 64 -64h511v-125h-511c-104 0 -188 85 -188 189v322c0 104 84 189 188 189h511v-125h-511z" />
    <glyph glyph-name="E" unicode="&#xc9;" 
d="M239 575c-35 0 -64 -29 -64 -64v-65h450v-125h-450v-132c0 -35 29 -64 64 -64h511v-125h-511c-104 0 -188 85 -188 189v322c0 104 84 189 188 189h511v-125h-511z" />
    <glyph glyph-name="E" unicode="&#xc8;" 
d="M239 575c-35 0 -64 -29 -64 -64v-65h450v-125h-450v-132c0 -35 29 -64 64 -64h511v-125h-511c-104 0 -188 85 -188 189v322c0 104 84 189 188 189h511v-125h-511z" />
    <glyph glyph-name="F" unicode="F" 
d="M239 700h512v-125h-511c-35 0 -64 -29 -64 -64v-65h450v-125h-451v-321h-124v511c0 104 84 189 188 189z" />
    <glyph glyph-name="G" unicode="G" 
d="M400 575c-124 0 -225 -101 -225 -225s101 -225 225 -225h225v134h-225v125h350v-384h-350c-193 0 -350 157 -350 350s157 350 350 350h350v-125h-350z" />
    <glyph glyph-name="H" unicode="H" 
d="M625 700h125v-700h-125v321h-450v-321h-125v700h125v-254h450v254z" />
    <glyph glyph-name="I" unicode="I" horiz-adv-x="225" 
d="M175 0h-125v700h125v-700z" />
    <glyph glyph-name="I" unicode="&#xcf;" horiz-adv-x="225" 
d="M175 0h-125v700h125v-700z" />
    <glyph glyph-name="I" unicode="&#xce;" horiz-adv-x="225" 
d="M175 0h-125v700h125v-700z" />
    <glyph glyph-name="I" unicode="&#xcd;" horiz-adv-x="225" 
d="M175 0h-125v700h125v-700z" />
    <glyph glyph-name="I" unicode="&#xcc;" horiz-adv-x="225" 
d="M175 0h-125v700h125v-700z" />
    <glyph glyph-name="J" unicode="J" 
d="M625 700h125v-511c0 -104 -85 -188 -189 -188h-322c-104 0 -189 84 -189 188v131h125v-131c0 -35 29 -64 64 -64h322c35 0 64 29 64 64v511z" />
    <glyph glyph-name="K" unicode="K" 
d="M750 700l-306 -281l303 -419h-154l-242 334l-177 -161v-173h-125v700h125v-358l103 94l93 85l195 179h185z" />
    <glyph glyph-name="L" unicode="L" horiz-adv-x="677" 
d="M260 125l367 -1v-125h-355c-35 0 -68 8 -98 23c-44 22 -80 58 -101 102c-15 30 -23 63 -23 98v477h125v-489c6 -44 41 -79 85 -85z" />
    <glyph glyph-name="M" unicode="M" 
d="M625 604l125 96v-700h-125v446l-123 -94l-102 -79l-102 79l-123 94v-446h-125v700l125 -96l225 -173z" />
    <glyph glyph-name="N" unicode="N" 
d="M625 700l125 -1v-700l-125 96l-450 347v-443h-125v698l125 -96l450 -347v446z" />
    <glyph glyph-name="N" unicode="&#xd1;" 
d="M625 700l125 -1v-700l-125 96l-450 347v-443h-125v698l125 -96l450 -347v446z" />
    <glyph glyph-name="O" unicode="O" horiz-adv-x="750" 
d="M375 700c193 0 350 -157 350 -350s-157 -350 -350 -350s-350 157 -350 350s157 350 350 350zM375 125c124 0 225 101 225 225s-101 225 -225 225s-225 -101 -225 -225s101 -225 225 -225z" />
    <glyph glyph-name="O" unicode="&#xd8;" horiz-adv-x="750" 
d="M375 700c193 0 350 -157 350 -350s-157 -350 -350 -350s-350 157 -350 350s157 350 350 350zM375 125c124 0 225 101 225 225s-101 225 -225 225s-225 -101 -225 -225s101 -225 225 -225z" />
    <glyph glyph-name="O" unicode="&#xd6;" horiz-adv-x="750" 
d="M375 700c193 0 350 -157 350 -350s-157 -350 -350 -350s-350 157 -350 350s157 350 350 350zM375 125c124 0 225 101 225 225s-101 225 -225 225s-225 -101 -225 -225s101 -225 225 -225z" />
    <glyph glyph-name="O" unicode="&#xd5;" horiz-adv-x="750" 
d="M375 700c193 0 350 -157 350 -350s-157 -350 -350 -350s-350 157 -350 350s157 350 350 350zM375 125c124 0 225 101 225 225s-101 225 -225 225s-225 -101 -225 -225s101 -225 225 -225z" />
    <glyph glyph-name="O" unicode="&#xd4;" horiz-adv-x="750" 
d="M375 700c193 0 350 -157 350 -350s-157 -350 -350 -350s-350 157 -350 350s157 350 350 350zM375 125c124 0 225 101 225 225s-101 225 -225 225s-225 -101 -225 -225s101 -225 225 -225z" />
    <glyph glyph-name="O" unicode="&#xd3;" horiz-adv-x="750" 
d="M375 700c193 0 350 -157 350 -350s-157 -350 -350 -350s-350 157 -350 350s157 350 350 350zM375 125c124 0 225 101 225 225s-101 225 -225 225s-225 -101 -225 -225s101 -225 225 -225z" />
    <glyph glyph-name="O" unicode="&#xd2;" horiz-adv-x="750" 
d="M375 700c193 0 350 -157 350 -350s-157 -350 -350 -350s-350 157 -350 350s157 350 350 350zM375 125c124 0 225 101 225 225s-101 225 -225 225s-225 -101 -225 -225s101 -225 225 -225z" />
    <glyph glyph-name="P" unicode="P" horiz-adv-x="730" 
d="M625 645l1 -2c34 -34 55 -81 55 -133c0 -76 -45 -142 -110 -172c-17 -8 -35 -13 -54 -15h-6v-1h-335v-322h-125v700v0v0h441c52 0 99 -21 133 -55zM519 451v1c23 10 38 33 38 58c0 23 -12 39 -19 46c-8 8 -23 18 -45 18h-317v-129h317c9 0 18 2 26 6z" />
    <glyph glyph-name="Q" unicode="Q" 
d="M750 350h-1c0 -86 -31 -164 -82 -225h82v-125h-346h-3c-193 0 -350 157 -350 350s157 350 350 350s350 -157 350 -350zM405 125c121 3 219 103 219 225c0 124 -101 225 -225 225s-225 -101 -225 -225s101 -225 225 -225v0h6z" />
    <glyph glyph-name="R" unicode="R" horiz-adv-x="730" 
d="M515 323l100 -199l64 -125h-140l-64 125l-67 131l-3 6c-22 36 -61 60 -106 60h-125v-322h-125v700h442c52 0 99 -21 133 -55c34 -35 55 -82 55 -134c0 -76 -45 -142 -110 -172c-17 -8 -35 -13 -54 -15v0zM174 445l317 1c9 0 18 2 26 6c23 10 38 33 38 58
c0 23 -12 39 -19 46c-8 8 -23 18 -45 18h-317v-129z" />
    <glyph glyph-name="S" unicode="S" horiz-adv-x="762" 
d="M712 507l-125 -1v4c0 35 -29 64 -64 64h-284c-35 0 -64 -29 -64 -64v-4c0 -35 29 -64 64 -64h252c65 0 123 -28 163 -72c3 -3 5 -6 8 -9c31 -38 50 -87 50 -140c0 -122 -99 -221 -221 -221h-219c-122 0 -221 99 -221 221h125c0 -53 43 -96 96 -96h219c53 0 97 43 97 96
s-44 96 -97 96h-252c-51 0 -97 20 -131 53c-9 9 -17 19 -24 30c-21 30 -33 67 -33 107v4c0 104 84 189 188 189h284c104 0 189 -85 189 -189v-4z" />
    <glyph glyph-name="T" unicode="T" 
d="M50 699h699v-125h-287v-575h-125v575h-287v125z" />
    <glyph glyph-name="U" unicode="U" 
d="M625 700h125v-350c0 -193 -157 -350 -350 -350s-350 157 -350 350v350h125v-350c0 -124 101 -225 225 -225s225 101 225 225v350z" />
    <glyph glyph-name="U" unicode="&#xdc;" 
d="M625 700h125v-350c0 -193 -157 -350 -350 -350s-350 157 -350 350v350h125v-350c0 -124 101 -225 225 -225s225 101 225 225v350z" />
    <glyph glyph-name="U" unicode="&#xdb;" 
d="M625 700h125v-350c0 -193 -157 -350 -350 -350s-350 157 -350 350v350h125v-350c0 -124 101 -225 225 -225s225 101 225 225v350z" />
    <glyph glyph-name="U" unicode="&#xda;" 
d="M625 700h125v-350c0 -193 -157 -350 -350 -350s-350 157 -350 350v350h125v-350c0 -124 101 -225 225 -225s225 101 225 225v350z" />
    <glyph glyph-name="U" unicode="&#xd9;" 
d="M625 700h125v-350c0 -193 -157 -350 -350 -350s-350 157 -350 350v350h125v-350c0 -124 101 -225 225 -225s225 101 225 225v350z" />
    <glyph glyph-name="V" unicode="V" horiz-adv-x="735" 
d="M584 700h140l-64 -125l-293 -575l-293 575l-64 125h140l64 -125l153 -300l153 300z" />
    <glyph glyph-name="W" unicode="W" horiz-adv-x="978" 
d="M928 700l-164 -549v0l-45 -151v0v0l-92 128v0l-139 191l-138 -191l-92 -127v0v0l-45 150l-163 549h130l126 -422v0v0l106 147l20 28l57 78l57 -78l20 -28l106 -147l126 422h130z" />
    <glyph glyph-name="X" unicode="X" horiz-adv-x="750" 
d="M25 -3v2h2zM725 -1v-2l-1 2h1zM725 699h2l-271 -351l270 -349h-158l-191 247l-191 -247h-158l269 349l-271 351h158l192 -249l192 249h157z" />
    <glyph glyph-name="Y" unicode="Y" horiz-adv-x="721" 
d="M553 701h157v0l-271 -351v0l-15 -19v-330h-125v328l-17 21v0l-271 351h158l192 -249zM10 -2v2h2zM710 -2l-1 2h1v-2z" />
    <glyph glyph-name="Y" unicode="&#xdd;" horiz-adv-x="721" 
d="M553 701h157v0l-271 -351v0l-15 -19v-330h-125v328l-17 21v0l-271 351h158l192 -249zM10 -2v2h2zM710 -2l-1 2h1v-2z" />
    <glyph glyph-name="Z" unicode="Z" 
d="M306 126h447v-125h-541l-1 -1h-158l1 1l96 125l172 223l79 102l96 124h-445v125h541v0h157v0l-97 -125l-174 -226l-79 -102z" />
    <glyph glyph-name="bracketleft" unicode="[" horiz-adv-x="352" 
d="M302 616h-128v-650h128v-125h-252v900h252v-125z" />
    <glyph glyph-name="backslash" unicode="\" horiz-adv-x="428" 
d="M287 305l91 -320h-130l-91 320l-35 125l-72 255h130l72 -255z" />
    <glyph glyph-name="bracketright" unicode="]" horiz-adv-x="352" 
d="M50 742h252v-900h-252v125h128v650h-128v125z" />
    <glyph glyph-name="underscore" unicode="_" 
d="M750 -183h-700v125h700v-125z" />
    <glyph glyph-name="a" unicode="a" horiz-adv-x="734" 
d="M660 125l64 -125h-140l-64 125l-153 300l-153 -300l-64 -125h-140l64 125l293 575z" />
    <glyph glyph-name="a" unicode="&#xe5;" horiz-adv-x="734" 
d="M660 125l64 -125h-140l-64 125l-153 300l-153 -300l-64 -125h-140l64 125l293 575z" />
    <glyph glyph-name="a" unicode="&#xe4;" horiz-adv-x="734" 
d="M660 125l64 -125h-140l-64 125l-153 300l-153 -300l-64 -125h-140l64 125l293 575z" />
    <glyph glyph-name="a" unicode="&#xe3;" horiz-adv-x="734" 
d="M660 125l64 -125h-140l-64 125l-153 300l-153 -300l-64 -125h-140l64 125l293 575z" />
    <glyph glyph-name="a" unicode="&#xe2;" horiz-adv-x="734" 
d="M660 125l64 -125h-140l-64 125l-153 300l-153 -300l-64 -125h-140l64 125l293 575z" />
    <glyph glyph-name="a" unicode="&#xe1;" horiz-adv-x="734" 
d="M660 125l64 -125h-140l-64 125l-153 300l-153 -300l-64 -125h-140l64 125l293 575z" />
    <glyph glyph-name="a" unicode="&#xe0;" horiz-adv-x="734" 
d="M660 125l64 -125h-140l-64 125l-153 300l-153 -300l-64 -125h-140l64 125l293 575z" />
    <glyph glyph-name="b" unicode="b" horiz-adv-x="775" 
d="M650 409c60 -40 100 -108 100 -186c0 -123 -100 -223 -223 -223h-477v0v0v700h441c104 0 189 -85 189 -189c0 -38 -11 -73 -30 -102zM175 575v-128h317c35 0 64 29 64 64s-29 64 -64 64h-317zM527 125v1c54 0 98 44 98 98s-44 98 -98 98h-352v-197h352z" />
    <glyph glyph-name="c" unicode="c" horiz-adv-x="790" 
d="M390 575c-124 0 -225 -101 -225 -225s101 -225 225 -225h350v-125h-350c-193 0 -350 157 -350 350s157 350 350 350h350v-125h-350z" />
    <glyph glyph-name="c" unicode="&#xe7;" horiz-adv-x="790" 
d="M390 575c-124 0 -225 -101 -225 -225s101 -225 225 -225h350v-125h-350c-193 0 -350 157 -350 350s157 350 350 350h350v-125h-350z" />
    <glyph glyph-name="d" unicode="d" 
d="M400 700l-1 -1c193 0 350 -156 350 -349c0 -86 -31 -165 -83 -226c-6 -7 -13 -14 -20 -21c-63 -64 -150 -103 -246 -103h-350v700h350zM399 124c124 0 225 101 225 225s-101 225 -225 225h-225v-450h225z" />
    <glyph glyph-name="e" unicode="e" 
d="M239 575c-35 0 -64 -29 -64 -64v-65h450v-125h-450v-132c0 -35 29 -64 64 -64h511v-125h-511c-104 0 -188 85 -188 189v322c0 104 84 189 188 189h511v-125h-511z" />
    <glyph glyph-name="e" unicode="&#xeb;" 
d="M239 575c-35 0 -64 -29 -64 -64v-65h450v-125h-450v-132c0 -35 29 -64 64 -64h511v-125h-511c-104 0 -188 85 -188 189v322c0 104 84 189 188 189h511v-125h-511z" />
    <glyph glyph-name="e" unicode="&#xea;" 
d="M239 575c-35 0 -64 -29 -64 -64v-65h450v-125h-450v-132c0 -35 29 -64 64 -64h511v-125h-511c-104 0 -188 85 -188 189v322c0 104 84 189 188 189h511v-125h-511z" />
    <glyph glyph-name="e" unicode="&#xe9;" 
d="M239 575c-35 0 -64 -29 -64 -64v-65h450v-125h-450v-132c0 -35 29 -64 64 -64h511v-125h-511c-104 0 -188 85 -188 189v322c0 104 84 189 188 189h511v-125h-511z" />
    <glyph glyph-name="e" unicode="&#xe8;" 
d="M239 575c-35 0 -64 -29 -64 -64v-65h450v-125h-450v-132c0 -35 29 -64 64 -64h511v-125h-511c-104 0 -188 85 -188 189v322c0 104 84 189 188 189h511v-125h-511z" />
    <glyph glyph-name="f" unicode="f" 
d="M239 700l512 1v-125h-511c-35 0 -64 -29 -64 -64v-65h450v-125h-451v-321h-124v510c0 104 84 189 188 189z" />
    <glyph glyph-name="g" unicode="g" 
d="M400 575c-124 0 -225 -101 -225 -225s101 -225 225 -225h225v134h-225v125h350v-384h-350c-193 0 -350 157 -350 350s157 350 350 350h350v-125h-350z" />
    <glyph glyph-name="h" unicode="h" 
d="M625 700h125v-700h-125v321h-450v-321h-125v700h125v-254h450v254z" />
    <glyph glyph-name="i" unicode="i" horiz-adv-x="225" 
d="M175 0h-125v700h125v-700z" />
    <glyph glyph-name="i" unicode="&#xef;" horiz-adv-x="225" 
d="M175 0h-125v700h125v-700z" />
    <glyph glyph-name="i" unicode="&#xee;" horiz-adv-x="225" 
d="M175 0h-125v700h125v-700z" />
    <glyph glyph-name="i" unicode="&#xed;" horiz-adv-x="225" 
d="M175 0h-125v700h125v-700z" />
    <glyph glyph-name="i" unicode="&#xec;" horiz-adv-x="225" 
d="M175 0h-125v700h125v-700z" />
    <glyph glyph-name="j" unicode="j" 
d="M625 700h125v-511c0 -104 -85 -188 -189 -188h-322c-104 0 -189 84 -189 188v131h125v-131c0 -35 29 -64 64 -64h322c35 0 64 29 64 64v511z" />
    <glyph glyph-name="k" unicode="k" 
d="M750 700l-306 -281l303 -419h-154l-242 334l-177 -161v-173h-125v700h125v-358l103 94l93 85l195 179h185z" />
    <glyph glyph-name="l" unicode="l" horiz-adv-x="677" 
d="M260 125l367 -1v-125h-355c-35 0 -68 8 -98 23c-44 22 -80 58 -101 102c-15 30 -23 63 -23 98v477h125v-489c6 -44 41 -79 85 -85z" />
    <glyph glyph-name="m" unicode="m" 
d="M625 604l125 96v-700h-125v446l-123 -94l-102 -79l-102 79l-123 94v-446h-125v700l125 -96l225 -173z" />
    <glyph glyph-name="n" unicode="n" 
d="M625 700l125 -1v-700l-125 96l-450 347v-443h-125v698l125 -96l450 -347v446z" />
    <glyph glyph-name="n" unicode="&#xf1;" 
d="M625 700l125 -1v-700l-125 96l-450 347v-443h-125v698l125 -96l450 -347v446z" />
    <glyph glyph-name="o" unicode="o" horiz-adv-x="752" 
d="M376 700c193 0 350 -157 350 -350s-157 -350 -350 -350s-350 157 -350 350s157 350 350 350zM376 125c124 0 225 101 225 225s-101 225 -225 225s-225 -101 -225 -225s101 -225 225 -225z" />
    <glyph glyph-name="o" unicode="&#xf8;" horiz-adv-x="752" 
d="M376 700c193 0 350 -157 350 -350s-157 -350 -350 -350s-350 157 -350 350s157 350 350 350zM376 125c124 0 225 101 225 225s-101 225 -225 225s-225 -101 -225 -225s101 -225 225 -225z" />
    <glyph glyph-name="o" unicode="&#xf6;" horiz-adv-x="752" 
d="M376 700c193 0 350 -157 350 -350s-157 -350 -350 -350s-350 157 -350 350s157 350 350 350zM376 125c124 0 225 101 225 225s-101 225 -225 225s-225 -101 -225 -225s101 -225 225 -225z" />
    <glyph glyph-name="o" unicode="&#xf5;" horiz-adv-x="752" 
d="M376 700c193 0 350 -157 350 -350s-157 -350 -350 -350s-350 157 -350 350s157 350 350 350zM376 125c124 0 225 101 225 225s-101 225 -225 225s-225 -101 -225 -225s101 -225 225 -225z" />
    <glyph glyph-name="o" unicode="&#xf4;" horiz-adv-x="752" 
d="M376 700c193 0 350 -157 350 -350s-157 -350 -350 -350s-350 157 -350 350s157 350 350 350zM376 125c124 0 225 101 225 225s-101 225 -225 225s-225 -101 -225 -225s101 -225 225 -225z" />
    <glyph glyph-name="o" unicode="&#xf3;" horiz-adv-x="752" 
d="M376 700c193 0 350 -157 350 -350s-157 -350 -350 -350s-350 157 -350 350s157 350 350 350zM376 125c124 0 225 101 225 225s-101 225 -225 225s-225 -101 -225 -225s101 -225 225 -225z" />
    <glyph glyph-name="o" unicode="&#xf2;" horiz-adv-x="752" 
d="M376 700c193 0 350 -157 350 -350s-157 -350 -350 -350s-350 157 -350 350s157 350 350 350zM376 125c124 0 225 101 225 225s-101 225 -225 225s-225 -101 -225 -225s101 -225 225 -225z" />
    <glyph glyph-name="p" unicode="p" horiz-adv-x="730" 
d="M625 645l1 -1c34 -35 55 -82 55 -134c0 -76 -45 -142 -110 -172c-17 -8 -35 -13 -54 -15h-6v-1h-335v-322h-125v700v0v0h441c52 0 99 -21 133 -55zM519 452v1c23 10 38 33 38 58c0 23 -12 39 -19 46c-8 8 -23 18 -45 18h-317v-129h317c9 0 18 2 26 6z" />
    <glyph glyph-name="q" unicode="q" 
d="M750 350h-1c0 -86 -31 -164 -82 -225h82v-125h-346h-3c-193 0 -350 157 -350 350s157 350 350 350s350 -157 350 -350zM405 125c121 3 219 103 219 225c0 124 -101 225 -225 225s-225 -101 -225 -225s101 -225 225 -225v0h6z" />
    <glyph glyph-name="r" unicode="r" horiz-adv-x="730" 
d="M515 323l100 -200l64 -125h-140l-64 125l-67 131l-3 6c-22 36 -61 60 -106 60h-125v-322h-125v700h442c52 0 99 -21 133 -55s55 -81 55 -133c0 -76 -45 -142 -110 -172c-17 -8 -35 -13 -54 -15v0zM174 444l317 1c9 0 18 2 26 6c23 10 38 33 38 58c0 23 -12 39 -19 46
c-8 8 -23 18 -45 18h-317v-129z" />
    <glyph glyph-name="s" unicode="s" horiz-adv-x="762" 
d="M712 507l-125 -1v4c0 35 -29 64 -64 64h-284c-35 0 -64 -29 -64 -64v-4c0 -35 29 -64 64 -64h252c65 0 123 -28 163 -72c3 -3 5 -6 8 -9c31 -38 50 -87 50 -140c0 -122 -99 -221 -221 -221h-219c-122 0 -221 99 -221 221h125c0 -53 43 -96 96 -96h219c53 0 97 43 97 96
s-44 96 -97 96h-252c-51 0 -97 20 -131 53c-9 9 -17 19 -24 30c-21 30 -33 67 -33 107v4c0 104 84 189 188 189h284c104 0 189 -85 189 -189v-4z" />
    <glyph glyph-name="s" unicode="&#xdf;" horiz-adv-x="762" 
d="M712 507l-125 -1v4c0 35 -29 64 -64 64h-284c-35 0 -64 -29 -64 -64v-4c0 -35 29 -64 64 -64h252c65 0 123 -28 163 -72c3 -3 5 -6 8 -9c31 -38 50 -87 50 -140c0 -122 -99 -221 -221 -221h-219c-122 0 -221 99 -221 221h125c0 -53 43 -96 96 -96h219c53 0 97 43 97 96
s-44 96 -97 96h-252c-51 0 -97 20 -131 53c-9 9 -17 19 -24 30c-21 30 -33 67 -33 107v4c0 104 84 189 188 189h284c104 0 189 -85 189 -189v-4z" />
    <glyph glyph-name="t" unicode="t" 
d="M50 699h699v-125h-287v-575h-125v575h-287v125z" />
    <glyph glyph-name="u" unicode="u" 
d="M625 700h125v-350c0 -193 -157 -350 -350 -350s-350 157 -350 350v350h125v-350c0 -124 101 -225 225 -225s225 101 225 225v350z" />
    <glyph glyph-name="u" unicode="&#xfc;" 
d="M625 700h125v-350c0 -193 -157 -350 -350 -350s-350 157 -350 350v350h125v-350c0 -124 101 -225 225 -225s225 101 225 225v350z" />
    <glyph glyph-name="u" unicode="&#xfb;" 
d="M625 700h125v-350c0 -193 -157 -350 -350 -350s-350 157 -350 350v350h125v-350c0 -124 101 -225 225 -225s225 101 225 225v350z" />
    <glyph glyph-name="u" unicode="&#xfa;" 
d="M625 700h125v-350c0 -193 -157 -350 -350 -350s-350 157 -350 350v350h125v-350c0 -124 101 -225 225 -225s225 101 225 225v350z" />
    <glyph glyph-name="u" unicode="&#xf9;" 
d="M625 700h125v-350c0 -193 -157 -350 -350 -350s-350 157 -350 350v350h125v-350c0 -124 101 -225 225 -225s225 101 225 225v350z" />
    <glyph glyph-name="v" unicode="v" horiz-adv-x="734" 
d="M583 700h140l-64 -125l-293 -575l-293 575l-64 125h140l64 -125l153 -300l153 300z" />
    <glyph glyph-name="w" unicode="w" horiz-adv-x="978" 
d="M928 700l-164 -549v0l-45 -151v0v0l-92 128v0l-139 191l-138 -191l-92 -127v0v0l-45 150l-163 549h130l126 -422v0v0l106 147l20 28l57 78l57 -78l20 -28l106 -147l126 422h130z" />
    <glyph glyph-name="x" unicode="x" horiz-adv-x="750" 
d="M25 -3v2h2zM725 -1v-2l-1 2h1zM725 699h2l-271 -351l270 -349h-158l-191 247l-191 -247h-158l269 349l-271 351h158l192 -249l192 249h157z" />
    <glyph glyph-name="y" unicode="y" 
d="M592 701h157v0l-271 -351v0l-15 -19v-330h-125v328l-17 21v0l-271 351h158l192 -249zM49 -2v2h2zM749 -2l-1 2h1v-2z" />
    <glyph glyph-name="y" unicode="&#xff;" 
d="M592 701h157v0l-271 -351v0l-15 -19v-330h-125v328l-17 21v0l-271 351h158l192 -249zM49 -2v2h2zM749 -2l-1 2h1v-2z" />
    <glyph glyph-name="y" unicode="&#xfd;" 
d="M592 701h157v0l-271 -351v0l-15 -19v-330h-125v328l-17 21v0l-271 351h158l192 -249zM49 -2v2h2zM749 -2l-1 2h1v-2z" />
    <glyph glyph-name="z" unicode="z" 
d="M306 125h447v-125h-541l-1 -1h-158l1 1l96 125l172 223l79 102l96 124h-445v125h541v0h157v0l-97 -125l-174 -226l-79 -102z" />
    <glyph glyph-name="braceleft" unicode="{" horiz-adv-x="381" 
d="M274 -32l57 1v-125h-57c-7 0 -14 0 -21 1c-71 10 -125 71 -125 145v223c-2 10 -11 17 -21 17h-57v125h57c10 0 19 7 21 17v223c0 74 54 135 125 145c7 1 14 1 21 1h57v-125h-57c-10 0 -19 -7 -21 -17v-224c0 -7 0 -14 -1 -21c-3 -23 -12 -44 -25 -62
c13 -18 22 -39 25 -62c1 -7 1 -14 1 -21v-224c2 -10 11 -17 21 -17z" />
    <glyph glyph-name="braceright" unicode="}" horiz-adv-x="381" 
d="M274 365l57 -2v-113v-11h-57c-10 0 -19 -7 -21 -17v-223c0 -74 -54 -135 -125 -145c-7 -1 -14 -1 -21 -1h-57v125h57c10 0 19 7 21 17v224c0 7 0 14 1 21c3 23 12 44 25 62c-13 18 -22 39 -25 62c-1 7 -1 14 -1 21v224c-2 10 -11 17 -21 17h-57v125h57c7 0 14 0 21 -1
c71 -10 125 -71 125 -145v-223c2 -10 11 -17 21 -17z" />
    <glyph glyph-name="asciitilde" unicode="~" horiz-adv-x="591" 
d="M331 376h-2c87 -41 122 -16 210 41v-123c-66 -54 -140 -74 -245 -34v0v0c-11 4 -23 9 -35 15c-33 15 -58 21 -81 20c-39 -2 -73 -25 -128 -61v0v0v123c42 34 86 54 139 55c32 1 67 -6 107 -21v0v0c11 -4 23 -9 35 -15z" />
    <glyph glyph-name="nonbreakingspace" unicode="&#xa0;" horiz-adv-x="487" 
 />
    <glyph glyph-name="sterling" unicode="&#xa3;" horiz-adv-x="753" 
d="M703 406h-125v89c0 35 -29 64 -64 64h-148c-35 0 -64 -29 -64 -64v-89h225v-125h-225v-172h402v-125h-527v297h-126v125h126v89c0 22 4 44 11 64c26 73 96 125 178 125h148c82 0 152 -52 178 -125c7 -20 11 -42 11 -64v-89z" />
    <glyph glyph-name="softhyphen" unicode="&#xad;" horiz-adv-x="100" 
 />
    <glyph glyph-name="multiply" unicode="&#xd7;" horiz-adv-x="524" 
d="M474 454l-125 -124l124 -124l-88 -88l-123 124l-124 -124l-88 88l124 124l-124 124l88 88l124 -124l124 124z" />
    <glyph glyph-name="divide" unicode="&#xf7;" horiz-adv-x="574" 
d="M524 268h-474v125h474v-125zM350 443h-125v125h125v-125zM350 94h-125v125h125v-125z" />
    <glyph glyph-name="quoteleft" unicode="&#x2018;" horiz-adv-x="225" 
d="M175 625h1v-125h-125v250h62z" />
    <glyph glyph-name="quoteright" unicode="&#x2019;" horiz-adv-x="225" 
d="M50 750h124v-250h-62l-62 125v0v125z" />
    <glyph glyph-name="quotedblleft" unicode="&#x201c;" horiz-adv-x="384" 
d="M334 624h1v-125h-125v250h62zM113 749l63 -125v0v-125h-125v250h62z" />
    <glyph glyph-name="quotedblright" unicode="&#x201d;" horiz-adv-x="384" 
d="M50 624l-1 125h125v-250h-62l-62 125v0zM209 749h124v-250h-62l-62 125v0v125z" />
    <glyph glyph-name="Euro" unicode="&#x20ac;" horiz-adv-x="770" 
d="M720 560h-222c-61 0 -117 -24 -158 -64h260v-125h-324v0c-2 -12 -3 -24 -3 -36c0 -9 0 -18 1 -27h326v-125h-268v0c41 -45 100 -74 166 -74h222v-125h-222c-139 0 -259 81 -315 199v0h-132v125h98v27c0 12 0 24 1 36v0h-99v125h137c58 112 175 189 310 189h222v-125z" />
    </font>
</defs>
</svg>
